<svg width="30" height="30" viewBox="0 0 30 30" fill="none" xmlns="http://www.w3.org/2000/svg">
<path d="M25.3125 6.5625C22.875 4.03125 18.8437 4.03125 16.4062 6.5625L15.1875 7.875C15.0937 7.96875 14.8125 7.96875 14.7187 7.875L13.5 6.5625C11.0625 4.03125 7.125 4.03125 4.6875 6.5625C2.25 9.09375 2.25 13.2187 4.6875 15.75L6.1875 17.25L14.8125 26.1562C14.9062 26.25 15.1875 26.25 15.2812 26.1562L23.9062 17.25L25.4062 15.75C27.8437 13.2187 27.8437 9.09375 25.3125 6.5625Z" stroke="#006000" stroke-width="2" stroke-miterlimit="10" stroke-linecap="round" stroke-linejoin="round"/>
<!-- <path d="M8.4375 14.0625H11.25L13.125 12.1875L15 15.9375L16.875 11.25L18.75 14.0625H21.5625" stroke="#006000" stroke-width="2" stroke-miterlimit="10" stroke-linecap="round" stroke-linejoin="round"/> -->
</svg>
