<svg width="22" height="24" viewBox="0 0 22 24" fill="none" xmlns="http://www.w3.org/2000/svg">
<path d="M17.4902 4.5625V0.938946C17.4902 0.690688 17.289 0.489746 17.041 0.489746H5.02732C4.77906 0.489746 4.57812 0.690688 4.57812 0.938946V4.52536C2.15962 5.27493 0.604492 7.22596 0.604492 9.78041V23.0085C0.604492 23.2564 0.805434 23.4577 1.05369 23.4577H20.8925C21.1404 23.4577 21.3417 23.2564 21.3417 23.0085V9.78041C21.3417 7.26938 19.8396 5.33961 17.4902 4.5625ZM5.47652 1.38815H16.5918V4.16241H5.47652V1.38815ZM20.4433 22.5593H1.50289V9.78041C1.50289 6.53718 4.20079 5.08537 6.87473 5.08537H15.0693C17.7445 5.08537 20.4433 6.53718 20.4433 9.78041V22.5593Z" fill="#006000"/>
<path d="M11.0337 8.53125C7.93095 8.53125 5.40674 11.0555 5.40674 14.1582C5.40674 17.261 7.93095 19.7852 11.0337 19.7852C14.1365 19.7852 16.6607 17.261 16.6607 14.1582C16.6607 11.0555 14.1365 8.53125 11.0337 8.53125ZM11.0337 18.8868C8.42626 18.8868 6.30514 16.7657 6.30514 14.1582C6.30514 11.5508 8.42626 9.42965 11.0337 9.42965C13.6412 9.42965 15.7623 11.5508 15.7623 14.1582C15.7623 16.7657 13.6412 18.8868 11.0337 18.8868Z" fill="#006000"/>
<path d="M12.6412 10.5152C12.4657 10.34 12.1809 10.34 12.006 10.5152L8.83523 13.6877C8.70676 13.8165 8.66843 14.0094 8.7379 14.1774C8.80738 14.3454 8.97119 14.4547 9.15296 14.4547H11.2394L8.83523 16.8591C8.65974 17.0346 8.65974 17.3188 8.83523 17.4943C8.92297 17.582 9.03797 17.6257 9.15296 17.6257C9.26796 17.6257 9.38296 17.582 9.4707 17.4943L12.6415 14.3229C12.7699 14.1944 12.8086 14.0013 12.7388 13.8333C12.669 13.6653 12.5055 13.556 12.3237 13.556H10.237L12.6412 11.1503C12.8166 10.9752 12.8166 10.6907 12.6412 10.5152Z" fill="#006000"/>
</svg>
