<svg width="30" height="25" viewBox="0 0 30 25" fill="none" xmlns="http://www.w3.org/2000/svg">
<path d="M21.0578 14.8115C20.1882 16.5575 19.6633 16.6501 19.6633 16.6501C18.4443 17.1355 17.2665 17.7194 16.1415 18.3961C14.77 18.4424 12.278 16.9035 12.278 16.9035C12.6208 16.581 14.4042 15.892 14.4042 15.892C16.9196 15.3406 16.8961 14.8354 16.8961 14.8354C16.9196 12.813 15.067 13.6861 15.067 13.6861C13.9911 14.2376 12.9175 14.3064 10.4943 14.2376C8.97715 14.2325 7.50278 14.7426 6.31041 15.6854C4.84713 16.0751 0 21.6138 0 21.6138L3.93295 24.9999L6.08176 21.7057C6.08176 21.7057 6.88259 20.0285 9.07905 21.0851C11.2755 22.1418 12.7365 22.005 14.3369 22.4638C15.9374 22.9226 16.6913 22.1881 16.6913 22.1881L20.0986 19.3392C21.6076 18.1899 21.9731 17.1796 21.9731 17.1796C23.2996 13.3648 24.0304 12.2163 24.0304 12.2163C22.7266 11.6602 21.9281 13.0621 21.0578 14.8115Z" fill="#006000"/>
<path d="M29.8659 1.07872C28.5655 0.364112 27.1058 -0.00700933 25.6236 0.000100258C24.3501 0.000797159 23.0925 0.28503 21.9412 0.832351C20.1037 1.69973 18.9724 2.79342 18.577 4.08484C18.3419 4.85658 18.3827 5.68658 18.6923 6.4313C17.8467 7.47908 17.3822 8.78547 17.3754 10.1345V10.3631C16.9941 9.95553 16.5754 9.58497 16.125 9.2563C16.3023 8.6551 16.2688 8.01091 16.0301 7.43157C15.6247 6.45103 14.6617 5.68172 13.1692 5.14531C12.437 4.87981 11.6647 4.74303 10.8863 4.74097C9.51284 4.74011 8.17078 5.15381 7.03402 5.92848C6.9965 5.95662 6.96663 5.99384 6.94715 6.03663C6.92768 6.07941 6.91923 6.12641 6.92259 6.17334C6.92564 6.22027 6.94048 6.26566 6.96575 6.30524C6.99102 6.34483 7.02589 6.37733 7.06707 6.39967C8.10578 6.9904 9.07875 7.69094 9.96942 8.48935C10.0501 8.56658 11.988 10.3786 13.9831 10.3786C14.6506 10.3823 15.2981 10.1499 15.8122 9.72207C16.4187 10.1432 16.9478 10.6671 17.3758 11.2703V16.3054C17.3208 16.3354 17.2641 16.3621 17.2059 16.3854C16.6099 16.6039 16.1365 16.3162 15.6139 16.1197C15.3011 16.2143 14.9564 16.3054 14.5576 16.3943C14.1548 16.5487 13.7122 16.7372 13.3533 16.9025C14.1602 17.3273 15.27 17.8293 15.9978 17.8641C17.1107 17.2085 18.2711 16.6381 19.4693 16.1575L19.51 16.1409C19.7969 15.9033 20.0331 15.6099 20.2043 15.2782C19.7977 15.1313 19.355 15.1189 18.9409 15.243C18.5653 15.3973 18.2237 15.6247 17.936 15.9123V10.1333C17.946 8.95746 18.3445 7.81825 19.0688 6.89476C19.6676 7.31322 20.3792 7.53822 21.1085 7.53971C23.7984 7.53971 26.275 4.73555 26.3795 4.61661C27.4333 3.4717 28.6064 2.44384 29.8786 1.55066C29.9174 1.52425 29.949 1.48845 29.9705 1.44657C29.992 1.40468 30.0026 1.35804 30.0015 1.31094C30.0003 1.26384 29.9874 1.21779 29.9639 1.17701C29.9404 1.13623 29.9071 1.10205 29.8671 1.07758L29.8659 1.07872Z" fill="#006000"/>
</svg>
