<svg width="41" height="41" viewBox="0 0 381 381" fill="none" xmlns="http://www.w3.org/2000/svg">
<path d="M363.606 164.478L363.606 164.479C377.267 178.136 377.377 202.078 363.528 216.403L363.528 216.404C354.666 225.573 346.714 238.957 340.982 252.889C335.253 266.814 331.464 281.961 331.464 294.843C331.464 314.772 314.773 331.464 294.843 331.464C281.729 331.464 266.598 335.087 252.694 340.765C238.797 346.439 225.516 354.415 216.325 363.606C202.062 377.868 178.741 377.868 164.478 363.606L164.439 363.566L164.399 363.528C155.23 354.666 141.845 346.714 127.914 340.982C113.988 335.253 98.8413 331.464 85.9597 331.464C66.0305 331.464 49.3387 314.773 49.3387 294.843C49.3387 281.729 45.7152 266.598 40.0378 252.694C34.3634 238.797 26.388 225.516 17.1969 216.325C2.93435 202.062 2.93435 178.741 17.1969 164.478L17.2361 164.439L17.2746 164.399C26.1365 155.23 34.0883 141.845 39.8201 127.913C45.5493 113.988 49.3387 98.8408 49.3387 85.9597C49.3387 66.0305 66.0297 49.3387 85.9597 49.3387C99.0736 49.3387 114.204 45.7152 128.108 40.0378C142.005 34.3634 155.287 26.388 164.478 17.1969C178.741 2.93435 202.062 2.93435 216.325 17.1969L216.364 17.2361L216.404 17.2746C225.573 26.1365 238.958 34.0883 252.889 39.8201C266.815 45.5493 281.962 49.3387 294.843 49.3387C314.772 49.3387 331.464 66.0297 331.464 85.9597C331.464 99.0736 335.087 114.204 340.765 128.108C346.439 142.005 354.415 155.287 363.606 164.478Z" fill="#4F81BD" stroke="#385D8A" stroke-width="13"/>
</svg>
