<svg width="24" height="22" viewBox="0 0 24 22" fill="none" xmlns="http://www.w3.org/2000/svg">
<path d="M8.63814 21C9.16532 21 9.59268 20.5736 9.59268 20.0476C9.59268 19.5216 9.16532 19.0952 8.63814 19.0952C8.11096 19.0952 7.68359 19.5216 7.68359 20.0476C7.68359 20.5736 8.11096 21 8.63814 21Z" stroke="black" stroke-width="2" stroke-linecap="round" stroke-linejoin="round"/>
<path d="M19.1381 21C19.6653 21 20.0927 20.5736 20.0927 20.0476C20.0927 19.5216 19.6653 19.0952 19.1381 19.0952C18.611 19.0952 18.1836 19.5216 18.1836 20.0476C18.1836 20.5736 18.611 21 19.1381 21Z" stroke="black" stroke-width="2" stroke-linecap="round" stroke-linejoin="round"/>
<path d="M1.00195 1H4.82013L7.37832 13.7524C7.4656 14.1909 7.70468 14.5847 8.0537 14.8651C8.40272 15.1454 8.83944 15.2943 9.28741 15.2857H18.5656C19.0136 15.2943 19.4503 15.1454 19.7993 14.8651C20.1483 14.5847 20.3874 14.1909 20.4747 13.7524L22.002 5.76191H5.77468" stroke="black" stroke-width="2" stroke-linecap="round" stroke-linejoin="round"/>
</svg>
