<svg width="18" height="18" viewBox="0 0 20 20" fill="none" xmlns="http://www.w3.org/2000/svg">
<path d="M9.99998 0C4.47715 0 0 4.47715 0 9.99998C0 15.5228 4.47715 20 9.99998 20C15.5228 20 20 15.5228 20 9.99998C19.9941 4.47961 15.5204 0.00590122 9.99998 0ZM10.7143 9.99998C10.7143 10.3945 10.3945 10.7143 9.99998 10.7143H4.28571C3.89121 10.7143 3.57141 10.3945 3.57141 9.99998C3.57141 9.60548 3.89121 9.28568 4.28571 9.28568H9.28572V4.28571C9.28572 3.89121 9.60552 3.57141 10 3.57141C10.3945 3.57141 10.7143 3.89121 10.7143 4.28571V9.99998Z" fill="#006000"/>
</svg>
