<svg width="19" height="18" viewBox="0 0 19 18" fill="none" xmlns="http://www.w3.org/2000/svg">
<path d="M17.6312 15.6388L10.9743 8.98158L17.5951 2.3608C18.1351 1.82058 18.1351 0.944865 17.5951 0.404942C17.0549 -0.134981 16.1795 -0.134981 15.6393 0.404942L9.01849 7.02573L2.398 0.404942C1.85778 -0.134981 0.982364 -0.134981 0.442145 0.404942C-0.0980737 0.945161 -0.0980737 1.82087 0.442145 2.3608L7.06264 8.98158L0.405164 15.6388C-0.135055 16.179 -0.135055 17.0544 0.405164 17.5946C0.675274 17.8647 1.02911 17.9996 1.38324 17.9996C1.73737 17.9996 2.0912 17.8647 2.36131 17.5946L9.01849 10.9374L15.6754 17.5946C15.9455 17.8647 16.2993 17.9996 16.6534 17.9996C17.0076 17.9996 17.3614 17.8647 17.6315 17.5946C18.1712 17.0547 18.1712 16.179 17.6312 15.6388Z" fill="#231F20"/>
</svg>
