<svg width="30" height="19" viewBox="0 0 24 16" fill="none" xmlns="http://www.w3.org/2000/svg">
<path d="M21.777 0.361328H1.76297C0.78928 0.361328 0 1.15046 0 2.12398V14.0186C0 14.9921 0.78928 15.7813 1.76297 15.7813H21.777C22.7507 15.7813 23.54 14.9921 23.54 14.0186V2.12398C23.54 1.15046 22.7507 0.361328 21.777 0.361328Z" fill="#41479B"/>
<path d="M23.5156 1.83165C23.3766 0.996918 22.6514 0.360352 21.777 0.360352H21.3183L13.7993 5.2857V0.360398H9.74069V5.28574L2.22168 0.360398H1.76297C0.888635 0.360398 0.163355 0.996918 0.0244136 1.8317L6.45093 6.04146H0V10.0993H6.45093L0.0244136 14.309C0.163355 15.1437 0.888635 15.7803 1.76297 15.7803H2.22168L9.74069 10.855V15.7803H13.7993V10.855L21.3183 15.7803H21.777C22.6514 15.7803 23.3766 15.1438 23.5156 14.309L17.0891 10.0992H23.54V6.04137H17.0891L23.5156 1.83165Z" fill="#F5F5F5"/>
<path d="M12.9876 0.361328H10.5524V6.85391H0V9.28866H10.5524V15.7812H12.9876V9.28866H23.54V6.85391H12.9876V0.361328Z" fill="#FF4B55"/>
<path d="M1.14013 15.6666L9.71857 10.0992H8.22764L0.424316 15.1636C0.615257 15.3864 0.860634 15.561 1.14013 15.6666Z" fill="#FF4B55"/>
<path d="M15.9255 10.0992H14.4346L22.7433 15.4915C22.9758 15.3389 23.1698 15.1327 23.3082 14.8905L15.9255 10.0992Z" fill="#FF4B55"/>
<path d="M0.186035 1.33481L7.43792 6.04135H8.92885L0.711363 0.70813C0.490722 0.872328 0.310172 1.087 0.186035 1.33481Z" fill="#FF4B55"/>
<path d="M15.2902 6.04145L23.1079 0.967719C22.9148 0.745648 22.6675 0.572072 22.3861 0.468506L13.7993 6.04145H15.2902Z" fill="#FF4B55"/>
</svg>
