<svg width="30" height="30" viewBox="0 0 30 30" fill="none" xmlns="http://www.w3.org/2000/svg">
<path d="M28.75 15.625C28.75 7.68506 22.3149 1.25 14.375 1.25C6.43506 1.25 0 7.68506 0 15.625C0 23.5649 6.43506 30 14.375 30C14.4592 30 14.5435 30 14.6277 29.9944V18.8088H11.5393V15.2095H14.6277V12.5591C14.6277 9.48755 16.5032 7.81421 19.2434 7.81421C20.5574 7.81421 21.686 7.90967 22.0117 7.95459V11.1665H20.125C18.637 11.1665 18.345 11.874 18.345 12.9128V15.2039H21.9106L21.4446 18.8032H18.345V29.4441C24.3533 27.7202 28.75 22.1892 28.75 15.625Z" fill="white"/>
</svg>
