<svg width="60" height="60" viewBox="0 0 60 60" fill="none" xmlns="http://www.w3.org/2000/svg">
<circle cx="30" cy="30" r="30" fill="#006000"/>
<path d="M39.717 32.3856L39.7252 32.3915L39.7335 32.3973C40.0371 32.6065 40.3263 32.8204 40.6288 33.044C40.7457 33.1305 40.8646 33.2184 40.9871 33.3081C41.4141 33.6208 41.8691 33.943 42.356 34.2297C43.1253 34.6825 43.986 35.0537 45.0002 35.1963V39.074V39.4496C44.2335 39.5563 43.3992 39.7546 42.7538 39.9457C42.6656 39.9623 42.5942 39.986 42.5444 40.0048C42.5029 40.0205 42.4641 40.0378 42.4343 40.0518C41.5093 40.2847 40.3147 40.5826 38.9846 40.9143C35.0984 41.8833 30.0563 43.1406 27.2074 43.9073H26.8316L26.7425 43.9972C26.6947 43.9917 26.6329 43.9777 26.539 43.95C26.479 43.9039 26.4194 43.868 26.3649 43.8406C26.3569 43.8366 26.349 43.8327 26.3411 43.8289L15.2626 35.7796L14.8225 35.4249L14.683 35.3126L14.5133 35.2556C14.4874 35.2469 14.472 35.2407 14.4642 35.2373C14.461 35.2345 14.4565 35.2305 14.4505 35.2249C14.4285 35.2044 14.4026 35.1784 14.3531 35.1287C14.1365 34.9105 14 34.5976 14 34.3517C14 33.8735 14.4017 33.3811 14.9788 33.3146H14.9788H14.9795H14.9802H14.9809H14.9815H14.9822H14.9829H14.9836H14.9843H14.985H14.9857H14.9864H14.9871H14.9878H14.9885H14.9892H14.9899H14.9906H14.9913H14.992H14.9927H14.9934H14.9941H14.9948H14.9955H14.9962H14.9969H14.9977H14.9984H14.9991H14.9998H15.0005H15.0012H15.002H15.0027H15.0034H15.0041H15.0049H15.0056H15.0063H15.0071H15.0078H15.0085H15.0093H15.01H15.0107H15.0115H15.0122H15.0129H15.0137H15.0144H15.0152H15.0159H15.0166H15.0174H15.0181H15.0189H15.0196H15.0204H15.0211H15.0219H15.0226H15.0234H15.0241H15.0249H15.0257H15.0264H15.0272H15.0279H15.0287H15.0294H15.0302H15.031H15.0317H15.0325H15.0333H15.034H15.0348H15.0356H15.0363H15.0371H15.0379H15.0386H15.0394H15.0402H15.041H15.0417H15.0425H15.0433H15.0441H15.0448H15.0456H15.0464H15.0472H15.0479H15.0487H15.0495H15.0503H15.0511H15.0519H15.0526H15.0534H15.0542H15.055H15.0558H15.0566H15.0573H15.0581H15.0589H15.0597H15.0605H15.0613H15.0621H15.0629H15.0637H15.0645H15.0652H15.066H15.0668H15.0676H15.0684H15.0692H15.07H15.0708H15.0716H15.0724H15.0732H15.074H15.0748H15.0756H15.0764H15.0772H15.078H15.0788H15.0796H15.0804H15.0812H15.082H15.0828H15.0836H15.0844H15.0852H15.086H15.0868H15.0876H15.0884H15.0892H15.09H15.0908H15.0916H15.0924H15.0932H15.094H15.0948H15.0957H15.0965H15.0973H15.0981H15.0989H15.0997H15.1005H15.1013H15.1021H15.1029H15.1037H15.1045H15.1053H15.1061H15.1069H15.1078H15.1086H15.1094H15.1102H15.111H15.1118H15.1126H15.1134H15.1142H15.115H15.1158H15.1166H15.1174H15.1183H15.1191H15.1199H15.1207H15.1215H15.1223H15.1231H15.1239H15.1247H15.1255H15.1263H15.1271H15.1279H15.1288H15.1296H15.1304H15.1312H15.132H15.1328H15.1336H15.1344H15.1352H15.136H15.1368H15.1376H15.1384H15.1392H15.14H15.1408H15.1416H15.1424H15.1432H15.144H15.1448H15.1456H15.1464H15.1472H15.148H15.1488H15.1496H15.1504H15.1512H15.152H15.1528H15.1536H15.1544H15.1552H15.156H15.1568H15.1576H15.1584H15.1592H15.16H15.1608H15.1616H15.1624H15.1632H15.164H15.1648H15.1656H15.1664H15.1671H15.1679H15.1687H15.1695H15.1703H15.1711H15.1719H15.1727H15.1734H15.1742H15.175H15.1758H15.1766H15.1774H15.1781H15.1789H15.1797H15.1805H15.1813H15.182H15.1828H15.1836H15.1844H15.1852H15.1859H15.1867H15.1875H15.1883H15.189H15.1898H15.1906H15.1913H15.1921H15.1929H15.1936H15.1944H15.1952H15.1959H15.1967H15.1975H15.1982H15.199H15.1997H15.2005H15.2013H15.202H15.2028H15.2035H15.2043H15.205H15.2058H15.2066H15.2073H15.2081H15.2088H15.2095H15.2103H15.211H15.2118H15.2125H15.2133H15.214H15.2148H15.2155H15.2162H15.217H15.2177H15.2184H15.2192H15.2199H15.2206H15.2214H15.2221H15.2228H15.2236H15.2243H15.225H15.2257H15.2265H15.2272H15.2279H15.2286H15.2293H15.2301H15.2308H15.2315H15.2322H15.2329H15.2336H15.2343H15.2351H15.2358H15.2365H15.2372H15.2379H15.2386H15.2393H15.24H15.2407H15.2414H15.2421H15.2428H15.2435H15.2441H15.2448H15.2455H15.2462H15.2469H15.2476H15.2483H15.2489H15.2496H15.2503H15.251H15.2517H15.2523H15.253H15.2537H15.2543H15.255H15.2557H15.2563H15.257H15.2577H15.2583H15.259H15.2596H15.2603H15.261H15.2616H15.2623H15.2629H15.2636H15.2642H15.2648H15.2655H15.2661H15.2668H15.2674H15.268H15.2687H15.2693H15.2699H15.2706H15.2712H15.2718H15.2724H15.2731H15.2737H15.2743H15.2749H15.2755H15.2762H15.2768H15.2774H15.278H15.2786H15.2792H15.2798H15.2804H15.281H15.2816H15.2822H15.2828H15.2834H15.284H15.2845H15.2851H15.2857H15.2863H15.2869H15.2875H15.288H15.2886H15.2892H15.2898H15.2903H15.2909H15.2915H15.292H15.2926H15.2931H15.2937H15.2942H15.2948H15.2953H15.2959H15.2964H15.297H15.2975H15.2981H15.2986H15.2991H15.2997H15.3002H15.3008H15.3013H15.3018H15.3024H15.3029H15.3034H15.304H15.3045H15.3051H15.3056H15.3061H15.3067H15.3072H15.3078H15.3083H15.3088H15.3094H15.3099H15.31C15.4165 33.3566 15.5167 33.3797 15.6023 33.3923L15.709 33.4998H15.8582L17.0121 34.3301L17.0325 34.3448L17.0537 34.3584L24.2236 38.9881L24.3289 39.0561L24.4478 39.096C24.8791 39.2408 25.2 39.2407 25.4801 39.2406C25.4872 39.2406 25.4944 39.2406 25.5015 39.2406H25.6254L25.7457 39.2103C26.115 39.1173 28.1548 38.5813 30.1404 38.0369H30.2915L30.4713 37.9644C30.6332 37.8992 30.8291 37.8434 31.1002 37.7751C31.1593 37.7602 31.2227 37.7446 31.2895 37.7281C31.5093 37.6739 31.7655 37.6107 32.0288 37.5349L32.0288 37.535L32.0415 37.5312C32.5013 37.3922 32.8796 37.2803 33.163 37.2034C33.3052 37.1649 33.4126 37.1381 33.4885 37.1217C33.5133 37.1164 33.5309 37.113 33.5422 37.111H33.7054L33.8951 37.0291C34.9678 36.566 35.5099 35.5109 35.5099 34.4443C35.5099 32.8803 34.3673 31.7843 33.0528 31.5195L32.955 31.4998H32.8553H31.0168H28.2591C28.1505 31.4998 28.0865 31.4621 28.0496 31.4249C28.0123 31.3874 27.9722 31.3195 27.9722 31.2035C27.9722 31.0876 28.0123 31.0197 28.0496 30.9821C28.0865 30.9449 28.1505 30.9072 28.2591 30.9072H33.131H33.1348H33.1386H33.1424H33.1461H33.1499H33.1537H33.1575H33.1613H33.1651H33.1689H33.1728H33.1766H33.1804H33.1842H33.1881H33.1919H33.1957H33.1996H33.2034H33.2073H33.2111H33.215H33.2189H33.2227H33.2266H33.2305H33.2344H33.2382H33.2421H33.246H33.2499H33.2538H33.2577H33.2616H33.2655H33.2695H33.2734H33.2773H33.2812H33.2852H33.2891H33.293H33.297H33.3009H33.3049H33.3089H33.3128H33.3168H33.3207H33.3247H33.3287H33.3327H33.3367H33.3407H33.3447H33.3486H33.3526H33.3567H33.3607H33.3647H33.3687H33.3727H33.3767H33.3808H33.3848H33.3888H33.3929H33.3969H33.401H33.405H33.4091H33.4131H33.4172H33.4213H33.4254H33.4294H33.4335H33.4376H33.4417H33.4458H33.4499H33.454H33.4581H33.4622H33.4663H33.4704H33.4745H33.4786H33.4828H33.4869H33.491H33.4952H33.4993H33.5035H33.5076H33.5118H33.5159H33.5201H33.5242H33.5284H33.5326H33.5368H33.5409H33.5451H33.5493H33.5535H33.5577H33.5619H33.5661H33.5703H33.5745H33.5787H33.583H33.5872H33.5914H33.5956H33.5999H33.6041H33.6083H33.6126H33.6168H33.6211H33.6253H33.6296H33.6339H33.6381H33.6424H33.6467H33.6509H33.6552H33.6595H33.6638H33.6681H33.6724H33.6767H33.681H33.6853H33.6896H33.6939H33.6982H33.7026H33.7069H33.7112H33.7155H33.7199H33.7242H33.7286H33.7329H33.7372H33.7416H33.746H33.7503H33.7547H33.7591H33.7634H33.7678H33.7722H33.7766H33.7809H33.7853H33.7897H33.7941H33.7985H33.8029H33.8073H33.8117H33.8162H33.8206H33.825H33.8294H33.8338H33.8383H33.8427H33.8472H33.8516H33.856H33.8605H33.8649H33.8694H33.8739H33.8783H33.8828H33.8873H33.8917H33.8962H33.9007H33.9052H33.9097H33.9141H33.9186H33.9231H33.9276H33.9321H33.9366H33.9412H33.9457H33.9502H33.9547H33.9592H33.9638H33.9683H33.9728H33.9774H33.9819H33.9865H33.991H33.9956H34.0001H34.0047H34.0092H34.0138H34.0184H34.0229H34.0275H34.0321H34.0367H34.0413H34.0458H34.0504H34.055H34.0596H34.0642H34.0688H34.0734H34.0781H34.0827H34.0873H34.0919H34.0965H34.1012H34.1058H34.1104H34.1151H34.1197H34.1243H34.129H34.1336H34.1383H34.143H34.1476H34.1523H34.1569H34.1616H34.1663H34.171H34.1756H34.1803H34.185H34.1897H34.1944H34.1991H34.2038H34.2085H34.2132H34.2179H34.2226H34.2273H34.232H34.2368H34.2415H34.2462H34.2509H34.2557H34.2604H34.2652H34.2699H34.2746H34.2794H34.2841H34.2889H34.2937H34.2984H34.3032H34.308H34.3127H34.3175H34.3223H34.3271H34.3318H34.3366H34.3414H34.3462H34.351H34.3558H34.3606H34.3654H34.3702H34.375H34.3798H34.3846H34.3895H34.3943H34.3991H34.4039H34.4088H34.4136H34.4184H34.4233H34.4281H34.433H34.4378H34.4427H34.4475H34.4524H34.4573H34.4621H34.467H34.4719H34.4767H34.4816H34.4865H34.4914H34.4962H34.5011H34.506H34.5109H34.5158H34.5207H34.5256H34.5305H34.5354H34.5403H34.5453H34.5502H34.5551H34.56H34.5649H34.5699H34.5748H34.5797H34.5847H34.5896H34.5945H34.5995H34.6044H34.6094H34.6143H34.6193H34.6243H34.6292H34.6342H34.6392H34.6441H34.6491H34.6541H34.6591H34.664H34.669H34.674H34.679H34.684H34.689H34.694H34.699H34.704H34.709H34.714H34.719H34.724H34.729H34.7341H34.7391H34.7441H34.7491H34.7542H34.7592H34.7642H34.7693H34.7743H34.7794H34.7844H34.7895H34.7945H34.7996H34.8046H34.8097H34.8148H34.8198H34.8249H34.83H34.835H34.8401H34.8452H34.8503H34.8554H34.8604H34.8655H34.8706H34.8757H34.8808H34.8859H34.891H34.8961H34.9012H34.9063H34.9115H34.9166H34.9217H34.9268H34.9319H34.9371H34.9422H34.9473H34.9525H34.9576H34.9627H34.9679H34.973H34.9782H34.9833H34.9885H34.9936H34.9988H35.0039H35.0091H35.0143H35.0194H35.0246H35.0298H35.0349H35.0401H35.0453H35.0505H35.0557H35.0608H35.066H35.0712H35.0764H35.0816H35.0868H35.092H35.0972H35.1024H35.1076H35.1128H35.1181H35.1233H35.1285H35.1337H35.1389H35.1442H35.1494H35.1546H35.1598H35.1651H35.1703H35.1756H35.1808H35.186H35.1913H35.1965H35.2018H35.207H35.2123H35.2176H35.2228H35.2281H35.2333H35.2386H35.2439H35.2492H35.2544H35.2597H35.265H35.2703H35.2756H35.2808H35.2861H35.2914H35.2967H35.302H35.3073H35.3126H35.3179H35.3232H35.3285H35.3338H35.3391H35.3444H35.3498H35.3551H35.3604H35.3657H35.371H35.3764H35.3817H35.387H35.3924H35.3977H35.403H35.4084H35.4137H35.4191H35.4244H35.4298H35.4351H35.4405H35.4458H35.4512H35.4565H35.4619H35.4673H35.4726H35.478H35.4834H35.4887H35.4941H35.4995H35.5049H35.5103H35.5156H35.521C37.3486 30.9072 38.5246 31.5277 39.717 32.3856Z" stroke="white" stroke-width="2"/>
<path d="M23.2039 18.7977L22.4045 17.7339C22.1133 17.3464 21.789 17.0223 21.439 16.7618L21.4389 16.7618C20.7551 16.2528 19.9924 16 19.1474 16C17.9906 16 16.9486 16.4427 16.1922 17.2322L23.2039 18.7977ZM23.2039 18.7977L24.0034 17.7339M23.2039 18.7977L24.0034 17.7339M24.0034 17.7339C24.2947 17.3463 24.6189 17.0224 24.9688 16.7618L24.0034 17.7339ZM21.0337 27.9775L21.0337 27.9776L21.0369 27.9802C21.6681 28.4979 22.3885 29.0888 23.1371 29.7187L23.1378 29.7192C23.1506 29.7301 23.1736 29.7408 23.204 29.7408C23.2345 29.7408 23.2576 29.7299 23.27 29.7194L23.2705 29.719C24.0137 29.0935 24.7295 28.5064 25.3576 27.9912L25.3746 27.9772L25.3747 27.9771C27.2498 26.4393 28.7713 25.1873 29.8152 23.9751L29.8152 23.9751C30.9468 22.6611 31.3962 21.5143 31.3962 20.317C31.3962 19.1016 30.9647 18.0141 30.2156 17.2322C29.4592 16.4427 28.4174 16 27.2605 16C26.4156 16 25.6529 16.2528 24.9689 16.7617L21.0337 27.9775ZM21.0337 27.9775C19.1583 26.4395 17.6368 25.1874 16.5929 23.9753C15.4612 22.661 15.0117 21.5142 15.0117 20.3172C15.0117 19.1016 15.4433 18.0141 16.1921 17.2322L21.0337 27.9775Z" stroke="white" stroke-width="2"/>
</svg>
