<?xml version="1.0" standalone="no"?>
<!DOCTYPE svg PUBLIC "-//W3C//DTD SVG 20010904//EN"
 "http://www.w3.org/TR/2001/REC-SVG-20010904/DTD/svg10.dtd">
<svg version="1.0" xmlns="http://www.w3.org/2000/svg"
 width="20pt" height="20pt" viewBox="0 0 720.000000 720.000000"
 preserveAspectRatio="xMidYMid meet">

<g transform="translate(0.000000,720.000000) scale(0.100000,-0.100000)"
fill="green" stroke="white">
<path d="M3505 5907 c-62 -17 -138 -55 -130 -66 2 -5 -3 -15 -13 -22 -15 -13
-16 -12 -3 4 7 9 9 17 4 17 -13 0 -45 -35 -38 -42 3 -3 -5 -13 -17 -24 -18
-15 -20 -16 -9 -1 7 9 9 17 4 17 -13 0 -45 -35 -38 -42 3 -3 -5 -13 -17 -24
-18 -15 -20 -16 -9 -1 7 9 9 17 4 17 -13 0 -45 -35 -38 -42 3 -3 -5 -13 -17
-24 -18 -15 -20 -16 -9 -1 7 9 9 17 4 17 -13 0 -45 -35 -38 -42 3 -3 -5 -13
-17 -24 -18 -15 -20 -16 -9 -1 7 9 9 17 4 17 -13 0 -45 -35 -38 -42 3 -3 -5
-13 -17 -24 -18 -15 -20 -16 -9 -1 7 9 9 17 4 17 -13 0 -45 -35 -38 -42 3 -3
-5 -13 -17 -24 -18 -15 -20 -16 -9 -1 7 9 9 17 4 17 -13 0 -45 -35 -38 -42 3
-3 -5 -13 -17 -24 -18 -15 -20 -16 -9 -1 7 9 9 17 4 17 -13 0 -45 -35 -38 -42
3 -3 -5 -13 -17 -24 -18 -15 -20 -16 -9 -1 7 9 9 17 4 17 -13 0 -45 -35 -38
-42 3 -3 -5 -13 -17 -24 -18 -15 -20 -16 -9 -1 7 9 9 17 4 17 -13 0 -45 -35
-38 -42 3 -3 -5 -13 -17 -24 -18 -15 -20 -16 -9 -1 7 9 9 17 4 17 -13 0 -45
-35 -38 -42 3 -3 -5 -13 -17 -24 -18 -15 -20 -16 -9 -1 7 9 9 17 4 17 -13 0
-45 -35 -38 -42 3 -3 -5 -13 -17 -24 -18 -15 -20 -16 -9 -1 7 9 9 17 4 17 -13
0 -45 -35 -38 -42 3 -3 -5 -13 -17 -24 -18 -15 -20 -16 -9 -1 7 9 9 17 4 17
-13 0 -45 -35 -38 -42 3 -3 -5 -13 -17 -24 -18 -15 -20 -16 -9 -1 7 9 9 17 4
17 -13 0 -45 -35 -38 -42 3 -3 -5 -13 -17 -24 -18 -15 -20 -16 -9 -1 7 9 9 17
4 17 -13 0 -45 -35 -38 -42 3 -3 -5 -13 -17 -24 -18 -15 -20 -16 -9 -1 7 9 9
17 4 17 -13 0 -45 -35 -38 -42 3 -3 -5 -13 -17 -24 -18 -15 -20 -16 -9 -1 7 9
9 17 4 17 -13 0 -45 -35 -38 -42 3 -3 -5 -13 -17 -24 -18 -15 -20 -16 -9 -1 7
9 9 17 4 17 -13 0 -45 -35 -38 -42 3 -3 -5 -13 -17 -24 -18 -15 -20 -16 -9 -1
7 9 9 17 4 17 -13 0 -45 -35 -38 -42 3 -3 -5 -13 -17 -24 -18 -15 -20 -16 -9
-1 7 9 9 17 4 17 -13 0 -45 -35 -38 -42 3 -3 -5 -13 -17 -24 -18 -15 -20 -16
-9 -1 7 9 9 17 4 17 -13 0 -45 -35 -38 -42 3 -3 -5 -13 -17 -24 -18 -15 -20
-16 -9 -1 7 9 9 17 4 17 -13 0 -45 -35 -38 -42 3 -3 -5 -13 -17 -24 -18 -15
-20 -16 -9 -1 7 9 9 17 4 17 -13 0 -45 -35 -38 -42 3 -3 -5 -13 -17 -24 -18
-15 -20 -16 -9 -1 7 9 9 17 4 17 -13 0 -45 -35 -38 -42 3 -3 -5 -13 -17 -24
-18 -15 -20 -16 -9 -1 7 9 9 17 4 17 -13 0 -45 -35 -38 -42 3 -3 -5 -13 -17
-24 -18 -15 -20 -16 -9 -1 7 9 9 17 4 17 -13 0 -45 -35 -38 -42 3 -3 -5 -13
-17 -24 -18 -15 -20 -16 -9 -1 7 9 9 17 4 17 -13 0 -45 -35 -38 -42 3 -3 -5
-13 -17 -24 -18 -15 -20 -16 -9 -1 7 9 9 17 4 17 -13 0 -45 -35 -38 -42 3 -3
-5 -13 -17 -24 -18 -15 -20 -16 -9 -1 7 9 9 17 4 17 -13 0 -45 -35 -38 -42 3
-3 -2 -11 -12 -19 -11 -9 -14 -10 -9 -1 4 6 3 12 -2 12 -12 0 -43 -35 -37 -42
3 -3 -5 -13 -17 -24 -18 -15 -20 -16 -9 -1 7 9 9 17 4 17 -13 0 -45 -35 -38
-42 3 -3 -2 -11 -12 -19 -11 -9 -14 -10 -9 -1 4 6 3 12 -2 12 -12 0 -43 -35
-37 -42 3 -3 -5 -13 -17 -24 -18 -15 -20 -16 -9 -1 7 9 9 17 4 17 -13 0 -45
-35 -38 -42 3 -3 -5 -13 -17 -24 -18 -15 -20 -16 -9 -1 7 9 9 17 4 17 -13 0
-45 -35 -38 -42 3 -3 -5 -13 -17 -24 -18 -15 -20 -16 -9 -1 7 9 9 17 4 17 -13
0 -45 -35 -38 -42 3 -3 -5 -13 -17 -24 -18 -15 -20 -16 -9 -1 7 9 9 17 4 17
-13 0 -45 -35 -38 -42 3 -3 -5 -13 -17 -24 -18 -15 -20 -16 -9 -1 7 9 9 17 4
17 -13 0 -45 -35 -38 -42 3 -3 -2 -11 -12 -19 -11 -9 -14 -10 -9 -1 4 6 3 12
-2 12 -12 0 -43 -35 -37 -42 3 -3 -2 -11 -12 -19 -11 -9 -14 -10 -9 -1 4 6 3
12 -2 12 -12 0 -43 -35 -37 -42 3 -3 -5 -13 -17 -24 -18 -15 -20 -16 -9 -1 7
9 9 17 4 17 -13 0 -45 -35 -38 -42 3 -3 -5 -13 -17 -24 -18 -15 -20 -16 -9 -1
7 9 9 17 4 17 -13 0 -45 -35 -38 -42 3 -3 -2 -11 -12 -19 -11 -9 -14 -10 -9
-1 4 6 3 12 -2 12 -12 0 -43 -35 -37 -42 3 -3 -3 -11 -12 -19 -17 -13 -17 -13
-4 6 l15 20 -20 -20 c-11 -11 -30 -51 -43 -90 -22 -65 -22 -72 -8 -105 16 -39
223 -289 259 -314 12 -9 42 -16 65 -16 42 0 63 17 1271 1023 675 562 1235
1028 1243 1035 14 11 185 -128 1257 -1023 1225 -1021 1242 -1035 1284 -1035
24 0 54 7 66 16 44 31 261 298 268 329 3 16 12 49 19 71 18 53 11 80 -33 127
-36 37 -66 52 -41 20 11 -15 9 -14 -9 1 -12 11 -20 21 -17 24 7 7 -25 42 -38
42 -5 0 -3 -8 4 -17 11 -15 9 -14 -9 1 -12 11 -20 21 -17 24 7 7 -25 42 -38
42 -5 0 -3 -8 4 -17 11 -15 9 -14 -9 1 -12 11 -20 21 -17 24 7 7 -25 42 -38
42 -5 0 -3 -8 4 -17 11 -15 9 -14 -9 1 -12 11 -20 21 -17 24 7 7 -25 42 -38
42 -5 0 -3 -8 4 -17 11 -15 10 -14 -9 1 -24 21 -29 31 -9 20 6 -4 3 2 -7 14
-23 26 -44 30 -25 5 7 -10 1 -7 -14 6 -30 27 -37 41 -9 20 9 -7 6 -1 -7 14
-25 27 -48 37 -35 15 4 -7 -2 -4 -14 6 -26 23 -29 34 -4 15 9 -7 6 -1 -7 14
-27 30 -52 38 -30 10 11 -15 9 -14 -9 1 -12 11 -20 21 -17 24 7 7 -25 42 -38
42 -5 0 -3 -8 4 -17 11 -15 9 -14 -9 1 -12 11 -20 21 -17 24 7 7 -25 42 -38
42 -5 0 -3 -8 4 -17 11 -15 9 -14 -9 1 -12 11 -20 21 -17 24 7 7 -25 42 -38
42 -5 0 -3 -8 4 -17 11 -15 9 -14 -9 1 -12 11 -20 21 -17 24 7 7 -25 42 -38
42 -5 0 -3 -8 4 -17 11 -15 9 -14 -9 1 -12 11 -20 21 -17 24 7 7 -25 42 -38
42 -5 0 -3 -8 4 -17 13 -16 12 -17 -3 -4 -16 12 -18 65 -18 763 0 653 -2 753
-16 779 -8 17 -20 27 -26 23 -7 -4 -8 -3 -4 4 16 27 -53 32 -410 32 -308 0
-370 -2 -394 -15 -17 -9 -30 -21 -30 -27 0 -6 8 -4 18 5 10 10 23 17 28 17 4
0 -3 -8 -16 -17 -14 -10 -29 -18 -35 -18 -5 0 -12 -13 -13 -30 -2 -16 -10 -38
-18 -49 -11 -17 -14 -80 -14 -333 0 -172 -4 -313 -8 -313 -5 0 -17 9 -27 20
-20 22 -41 27 -29 8 5 -9 2 -8 -9 1 -10 8 -15 16 -12 19 6 7 -25 42 -37 42 -5
0 -6 -6 -2 -12 4 -7 -2 -4 -14 6 -26 23 -29 34 -4 15 9 -7 6 -1 -7 14 -27 30
-52 38 -30 10 7 -10 1 -7 -14 6 -30 27 -37 41 -9 20 9 -7 6 -1 -7 14 -25 27
-48 37 -35 15 4 -7 -2 -4 -14 6 -26 23 -29 34 -4 15 9 -7 4 1 -12 19 -31 33
-59 45 -35 15 11 -15 9 -14 -9 1 -12 11 -20 21 -17 24 7 7 -25 42 -38 42 -5 0
-3 -8 4 -17 11 -15 9 -14 -9 1 -12 11 -20 21 -17 24 7 7 -25 42 -38 42 -5 0
-3 -8 4 -17 11 -15 9 -14 -9 1 -12 11 -20 21 -17 24 7 7 -25 42 -38 42 -5 0
-3 -8 4 -17 11 -15 9 -14 -9 1 -12 11 -20 21 -17 24 7 7 -25 42 -38 42 -5 0
-3 -8 4 -17 11 -15 9 -14 -9 1 -12 11 -20 21 -17 24 7 7 -25 42 -38 42 -5 0
-3 -8 4 -17 7 -10 1 -7 -14 6 -30 27 -37 41 -9 20 9 -7 6 -1 -7 14 -27 30 -52
38 -30 10 11 -15 9 -14 -9 1 -12 11 -20 21 -17 24 7 7 -25 42 -38 42 -5 0 -3
-8 4 -17 7 -10 1 -7 -14 6 -30 27 -37 41 -9 20 9 -7 6 -1 -7 14 -27 30 -52 38
-30 10 7 -10 1 -7 -14 6 -30 27 -37 41 -9 20 9 -7 6 -1 -7 14 -23 26 -49 38
-36 17 10 -16 -1 -11 -16 7 -12 14 -12 16 1 9 8 -4 5 2 -8 13 -63 55 -241 85
-347 58z m138 -4 c-13 -2 -35 -2 -50 0 -16 2 -5 4 22 4 28 0 40 -2 28 -4z
m-100 -10 c-7 -2 -19 -2 -25 0 -7 3 -2 5 12 5 14 0 19 -2 13 -5z m170 0 c-7
-2 -19 -2 -25 0 -7 3 -2 5 12 5 14 0 19 -2 13 -5z m1675 0 c-97 -2 -259 -2
-360 0 -101 1 -21 2 177 2 198 0 280 -1 183 -2z m-1891 -9 c-3 -3 -12 -4 -19
-1 -8 3 -5 6 6 6 11 1 17 -2 13 -5z m260 0 c-3 -3 -12 -4 -19 -1 -8 3 -5 6 6
6 11 1 17 -2 13 -5z m1881 -49 c-3 -3 -9 2 -12 12 -6 14 -5 15 5 6 7 -7 10
-15 7 -18z m-868 -365 l-6 -365 -2 330 c-1 267 3 424 12 403 0 -2 -1 -167 -4
-368z m-1195 -179 c-17 -15 -573 -481 -1238 -1035 -1186 -988 -1208 -1006
-1250 -1006 -23 0 -53 7 -65 15 -12 9 -66 69 -120 133 -130 155 -142 172 -142
191 1 9 6 4 13 -11 15 -35 233 -295 258 -308 10 -6 36 -10 58 -10 38 0 90 42
1273 1029 678 567 1235 1030 1238 1030 2 1 -9 -12 -25 -28z m1342 -1043 c1137
-949 1186 -988 1224 -988 22 0 48 4 58 10 10 5 63 62 117 127 136 161 127 151
118 133 -14 -27 -203 -248 -226 -265 -12 -8 -42 -15 -65 -15 -43 0 -61 14
-1273 1025 -676 564 -1232 1031 -1237 1038 -4 6 17 -8 46 -33 30 -25 587 -489
1238 -1032z m-177 862 c0 -5 -7 -7 -15 -4 -8 4 -15 8 -15 10 0 2 7 4 15 4 8 0
15 -4 15 -10z m1701 -1427 c13 -16 12 -17 -3 -4 -10 7 -18 15 -18 17 0 8 8 3
21 -13z m-5664 -45 c-3 -8 -6 -5 -6 6 -1 11 2 17 5 13 3 -3 4 -12 1 -19z
m5680 0 c-3 -8 -6 -5 -6 6 -1 11 2 17 5 13 3 -3 4 -12 1 -19z m-5 -70 c-8 -8
-9 -4 -5 13 4 13 8 18 11 10 2 -7 -1 -18 -6 -23z"/>
<path d="M3599 4983 c-12 -15 -12 -16 1 -8 9 5 8 0 -4 -13 -21 -25 -36 -31
-16 -7 7 8 8 15 3 15 -13 0 -45 -35 -38 -42 3 -3 -2 -11 -12 -19 -11 -9 -14
-10 -9 -1 4 6 3 12 -2 12 -12 0 -33 -25 -27 -32 3 -3 -5 -13 -17 -24 -18 -15
-20 -16 -9 -1 7 9 9 17 4 17 -13 0 -45 -35 -38 -42 3 -3 -5 -13 -17 -24 -18
-15 -20 -16 -9 -1 7 9 9 17 4 17 -13 0 -45 -35 -38 -42 3 -3 -5 -13 -17 -24
-18 -15 -20 -16 -9 -1 19 25 -2 21 -25 -5 -12 -13 -13 -18 -4 -13 9 5 8 0 -4
-13 -21 -25 -36 -31 -16 -7 7 8 8 15 3 15 -13 0 -45 -35 -38 -42 3 -3 -5 -13
-17 -24 -18 -15 -20 -16 -9 -1 7 9 9 17 4 17 -13 0 -45 -35 -38 -42 3 -3 -2
-11 -12 -19 -11 -9 -14 -10 -9 -1 4 6 3 12 -2 12 -12 0 -33 -25 -27 -32 3 -3
-5 -13 -17 -24 -18 -15 -20 -16 -9 -1 7 9 9 17 4 17 -13 0 -45 -35 -38 -42 3
-3 -5 -13 -17 -24 -18 -15 -20 -16 -9 -1 7 9 9 17 4 17 -13 0 -45 -35 -38 -42
3 -3 -5 -13 -17 -24 -18 -15 -20 -16 -9 -1 7 9 9 17 4 17 -13 0 -45 -35 -38
-42 3 -3 -2 -11 -12 -19 -11 -9 -14 -10 -9 -1 4 6 3 12 -2 12 -12 0 -33 -25
-27 -32 3 -3 -5 -13 -17 -24 -18 -15 -20 -16 -9 -1 7 9 9 17 4 17 -13 0 -45
-35 -38 -42 3 -3 -5 -13 -17 -24 -18 -15 -20 -16 -9 -1 22 28 -3 20 -30 -10
-18 -21 -19 -24 -4 -13 15 11 14 8 -4 -13 -25 -28 -43 -38 -21 -12 20 24 -5
17 -26 -7 -12 -13 -13 -18 -4 -13 9 5 8 0 -4 -13 -21 -25 -36 -31 -16 -7 7 8
8 15 3 15 -13 0 -45 -35 -38 -42 3 -3 -5 -13 -17 -24 -18 -15 -20 -16 -9 -1 7
9 9 17 4 17 -13 0 -45 -35 -38 -42 3 -3 -5 -13 -17 -24 -18 -15 -20 -16 -9 -1
19 25 -2 21 -25 -5 -12 -13 -13 -18 -4 -13 9 5 8 0 -4 -13 -21 -25 -36 -31
-16 -7 7 8 8 15 3 15 -13 0 -45 -35 -38 -42 3 -3 -5 -13 -17 -24 -18 -15 -20
-16 -9 -1 7 9 9 17 4 17 -13 0 -45 -35 -38 -42 3 -3 -5 -13 -17 -24 -18 -15
-20 -16 -9 -1 22 28 -3 20 -30 -10 -18 -21 -19 -24 -4 -13 15 11 14 8 -4 -13
-25 -28 -43 -38 -21 -12 20 24 -5 17 -26 -7 -12 -13 -13 -18 -4 -13 9 5 8 0
-4 -13 -21 -25 -36 -31 -16 -7 7 8 8 15 3 15 -13 0 -45 -35 -38 -42 3 -3 -5
-13 -17 -24 -18 -15 -20 -16 -9 -1 7 9 9 17 4 17 -13 0 -45 -35 -38 -42 3 -3
-5 -13 -17 -24 -18 -15 -20 -16 -9 -1 19 25 -2 21 -25 -5 -12 -13 -13 -18 -4
-13 9 5 8 0 -4 -13 -21 -25 -36 -31 -16 -7 7 8 8 15 3 15 -13 0 -45 -35 -38
-42 3 -3 -5 -13 -17 -24 -18 -15 -20 -16 -9 -1 7 9 9 17 4 17 -13 0 -45 -35
-38 -42 3 -3 -2 -11 -12 -19 -11 -9 -14 -10 -9 -1 4 6 3 12 -2 12 -12 0 -33
-25 -27 -32 3 -3 -5 -13 -17 -24 -18 -15 -20 -16 -9 -1 7 9 9 17 4 17 -13 0
-45 -35 -38 -42 3 -3 -5 -13 -17 -24 -18 -15 -20 -16 -9 -1 7 9 9 17 4 17 -13
0 -45 -35 -38 -42 3 -3 -5 -13 -17 -24 -18 -15 -20 -16 -9 -1 19 25 -2 21 -25
-5 -12 -13 -13 -18 -4 -13 9 5 8 0 -4 -13 -21 -25 -36 -31 -16 -7 7 8 8 15 3
15 -13 0 -45 -35 -38 -42 3 -3 -5 -13 -17 -24 -18 -15 -20 -16 -9 -1 7 9 9 17
4 17 -13 0 -45 -35 -38 -42 3 -3 -5 -13 -17 -24 -18 -15 -20 -16 -9 -1 7 9 9
17 4 17 -13 0 -45 -35 -38 -42 3 -3 -2 -11 -12 -19 -11 -9 -14 -10 -9 -1 4 6
3 12 -2 12 -12 0 -33 -25 -27 -32 3 -3 -2 -11 -12 -19 -14 -12 -15 -12 -9 0 6
9 4 12 -5 9 -8 -2 -15 -21 -17 -41 -2 -19 -10 -41 -18 -47 -12 -11 -14 -137
-14 -889 0 -547 4 -889 10 -912 13 -48 75 -118 124 -140 39 -17 83 -19 749
-19 l707 0 0 45 0 45 -692 0 c-652 0 -695 2 -734 19 -53 24 -109 91 -123 146
-8 31 -10 295 -9 877 l3 833 5 -855 c4 -627 8 -862 17 -881 20 -46 73 -97 116
-114 37 -14 121 -15 734 -13 380 2 689 0 686 -4 -2 -5 2 -8 9 -8 11 0 13 117
10 635 l-2 635 445 0 445 0 0 -680 0 -680 708 0 c662 0 710 2 747 19 60 27
110 89 137 168 l23 68 2 891 c3 846 2 892 -14 898 -14 6 -16 5 -5 -5 9 -10 11
-196 10 -873 l-3 -861 -2 855 c-2 470 -6 862 -9 870 -3 8 -4 16 -2 16 2 1 -6
11 -16 23 -23 25 -44 28 -25 4 11 -15 9 -14 -9 1 -12 11 -20 21 -17 24 7 7
-25 42 -38 42 -5 0 -3 -8 4 -17 11 -15 9 -14 -9 1 -12 11 -20 21 -17 24 6 7
-15 32 -27 32 -5 0 -6 -6 -2 -12 4 -7 -2 -4 -14 6 -26 23 -29 34 -4 15 9 -7 6
-1 -7 14 -27 30 -52 38 -30 10 11 -15 9 -14 -9 1 -12 11 -20 21 -17 24 7 7
-25 42 -38 42 -5 0 -3 -8 4 -17 11 -15 9 -14 -9 1 -12 11 -20 21 -17 24 7 7
-25 42 -38 42 -5 0 -3 -8 4 -17 11 -15 10 -14 -9 1 -24 21 -29 31 -9 20 6 -4
3 2 -7 14 -23 26 -44 30 -25 5 11 -15 9 -14 -9 1 -12 11 -20 21 -17 24 7 7
-25 42 -38 42 -5 0 -3 -8 4 -17 11 -15 9 -14 -9 1 -12 11 -20 21 -17 24 7 7
-25 42 -38 42 -5 0 -3 -8 4 -17 11 -15 9 -14 -9 1 -12 11 -20 21 -17 24 6 7
-15 32 -27 32 -5 0 -6 -6 -2 -12 5 -9 2 -8 -9 1 -10 8 -15 16 -12 19 7 7 -25
42 -38 42 -5 0 -3 -8 4 -17 11 -15 9 -14 -9 1 -12 11 -20 21 -17 24 7 7 -25
42 -38 42 -5 0 -3 -8 4 -17 11 -15 9 -14 -9 1 -12 11 -20 21 -17 24 6 7 -15
32 -27 32 -5 0 -6 -6 -2 -12 4 -7 -2 -4 -14 6 -26 23 -29 34 -4 15 9 -7 6 -1
-7 14 -27 30 -52 38 -30 10 11 -15 9 -14 -9 1 -12 11 -20 21 -17 24 7 7 -25
42 -38 42 -5 0 -3 -8 4 -17 11 -15 9 -14 -9 1 -12 11 -20 21 -17 24 6 7 -15
32 -27 32 -5 0 -6 -6 -2 -12 4 -7 -2 -4 -14 6 -26 23 -29 34 -4 15 9 -7 6 -1
-7 14 -27 30 -52 38 -30 10 11 -15 9 -14 -9 1 -12 11 -20 21 -17 24 7 7 -25
42 -38 42 -5 0 -3 -8 4 -17 11 -15 9 -14 -9 1 -12 11 -20 21 -17 24 7 7 -25
42 -38 42 -5 0 -3 -8 4 -17 11 -15 9 -14 -9 1 -12 11 -20 21 -17 24 6 7 -15
32 -27 32 -5 0 -6 -6 -2 -12 5 -9 2 -8 -9 1 -10 8 -15 16 -12 19 7 7 -25 42
-38 42 -5 0 -3 -8 4 -17 11 -15 9 -14 -9 1 -12 11 -20 21 -17 24 7 7 -25 42
-38 42 -5 0 -3 -8 4 -17 11 -15 10 -14 -9 1 -24 21 -29 31 -9 20 6 -4 3 2 -7
14 -23 26 -44 30 -25 5 11 -15 9 -14 -9 1 -12 11 -20 21 -17 24 7 7 -25 42
-38 42 -5 0 -3 -8 4 -17 11 -15 9 -14 -9 1 -12 11 -20 21 -17 24 7 7 -25 42
-38 42 -5 0 -3 -8 4 -17 11 -15 9 -14 -9 1 -12 11 -20 21 -17 24 7 7 -25 42
-38 42 -5 0 -3 -8 4 -17 11 -15 10 -14 -9 1 -24 21 -29 31 -9 20 6 -4 3 2 -7
14 -23 26 -44 30 -25 5 11 -15 9 -14 -9 1 -12 11 -20 21 -17 24 7 7 -25 42
-38 42 -5 0 -3 -8 4 -17 11 -15 9 -14 -9 1 -12 11 -20 21 -17 24 7 7 -25 42
-38 42 -5 0 -3 -8 4 -17 11 -15 10 -14 -9 1 -24 21 -29 31 -9 20 6 -4 3 2 -7
14 -23 26 -44 30 -25 5 11 -15 9 -14 -9 1 -12 11 -20 21 -17 24 7 7 -25 42
-38 42 -5 0 -3 -8 4 -17 11 -15 9 -14 -9 1 -12 11 -20 21 -17 24 7 7 -25 42
-38 42 -5 0 -3 -8 4 -17 11 -15 9 -14 -9 1 -12 11 -20 21 -17 24 6 7 -15 32
-27 32 -5 0 -6 -6 -2 -12 5 -9 2 -8 -9 1 -10 8 -15 16 -12 19 7 7 -25 42 -38
42 -5 0 -3 -8 4 -17 11 -15 9 -14 -9 1 -12 11 -20 21 -17 24 7 7 -25 42 -38
42 -5 0 -3 -8 4 -17 11 -15 10 -14 -9 1 -24 21 -29 32 -9 20 8 -5 8 -2 -2 9
-7 9 -15 17 -16 17 -1 0 -9 -8 -16 -17z m-2012 -1720 c-3 -10 -5 -4 -5 12 0
17 2 24 5 18 2 -7 2 -21 0 -30z m2261 -530 c-125 -2 -332 -2 -460 0 -128 1
-26 2 227 2 253 0 358 -1 233 -2z m-701 -60 c-3 -10 -5 -2 -5 17 0 19 2 27 5
18 2 -10 2 -26 0 -35z m2490 -1135 c-3 -8 -6 -5 -6 6 -1 11 2 17 5 13 3 -3 4
-12 1 -19z m-48 -104 c-13 -15 -42 -35 -64 -45 -38 -18 -78 -18 -750 -16
l-710 2 721 5 720 5 43 28 c23 15 45 35 48 43 3 8 8 12 11 9 3 -3 -5 -17 -19
-31z"/>
</g>
</svg>
