<svg width="23" height="23" viewBox="0 0 23 23" fill="none" xmlns="http://www.w3.org/2000/svg">
<path d="M13.7012 11.5C13.7012 12.7157 12.7157 13.7012 11.5 13.7012C10.2843 13.7012 9.29883 12.7157 9.29883 11.5C9.29883 10.2843 10.2843 9.29883 11.5 9.29883C12.7157 9.29883 13.7012 10.2843 13.7012 11.5Z" fill="#006000"/>
<path d="M16.6475 7.60552C16.5417 7.31879 16.3729 7.05927 16.1535 6.84624C15.9405 6.62689 15.6811 6.45808 15.3942 6.35227C15.1616 6.2619 14.812 6.15434 14.1682 6.12503C13.4717 6.09327 13.2629 6.08643 11.4997 6.08643C9.73637 6.08643 9.52755 6.09309 8.83126 6.12486C8.18744 6.15434 7.83772 6.2619 7.60521 6.35227C7.31831 6.45808 7.05878 6.62689 6.84592 6.84624C6.62658 7.05927 6.45777 7.31862 6.35178 7.60552C6.26141 7.8382 6.15385 8.18793 6.12454 8.83175C6.09278 9.52804 6.08594 9.73685 6.08594 11.5002C6.08594 13.2634 6.09278 13.4722 6.12454 14.1687C6.15385 14.8125 6.26141 15.162 6.35178 15.3947C6.45777 15.6816 6.6264 15.941 6.84575 16.154C7.05878 16.3734 7.31813 16.5422 7.60503 16.648C7.83772 16.7385 8.18744 16.8461 8.83126 16.8754C9.52755 16.9072 9.73619 16.9138 11.4995 16.9138C13.2631 16.9138 13.4719 16.9072 14.168 16.8754C14.8118 16.8461 15.1616 16.7385 15.3942 16.648C15.9702 16.4258 16.4253 15.9706 16.6475 15.3947C16.7379 15.162 16.8454 14.8125 16.8749 14.1687C16.9067 13.4722 16.9133 13.2634 16.9133 11.5002C16.9133 9.73685 16.9067 9.52804 16.8749 8.83175C16.8456 8.18793 16.738 7.8382 16.6475 7.60552ZM11.4997 14.8909C9.62687 14.8909 8.10865 13.3729 8.10865 11.5C8.10865 9.62718 9.62687 8.10914 11.4997 8.10914C13.3724 8.10914 14.8906 9.62718 14.8906 11.5C14.8906 13.3729 13.3724 14.8909 11.4997 14.8909ZM15.0247 8.76752C14.5871 8.76752 14.2322 8.41271 14.2322 7.97507C14.2322 7.53744 14.5871 7.18262 15.0247 7.18262C15.4623 7.18262 15.8171 7.53744 15.8171 7.97507C15.817 8.41271 15.4623 8.76752 15.0247 8.76752Z" fill="#006000"/>
<path d="M11.5 0C5.1497 0 0 5.1497 0 11.5C0 17.8503 5.1497 23 11.5 23C17.8503 23 23 17.8503 23 11.5C23 5.1497 17.8503 0 11.5 0ZM18.0637 14.2225C18.0317 14.9255 17.92 15.4054 17.7568 15.8255C17.4137 16.7125 16.7125 17.4137 15.8255 17.7568C15.4056 17.92 14.9255 18.0316 14.2227 18.0637C13.5185 18.0958 13.2935 18.1035 11.5002 18.1035C9.70663 18.1035 9.48185 18.0958 8.77749 18.0637C8.07471 18.0316 7.5946 17.92 7.17469 17.7568C6.73389 17.591 6.33486 17.3311 6.00497 16.995C5.66911 16.6653 5.40923 16.2661 5.2434 15.8255C5.08021 15.4056 4.96843 14.9255 4.93649 14.2227C4.90403 13.5183 4.89648 13.2934 4.89648 11.5C4.89648 9.70663 4.90403 9.48167 4.93632 8.77749C4.96825 8.07453 5.07986 7.5946 5.24305 7.17451C5.40887 6.73389 5.66893 6.33469 6.00497 6.00497C6.33469 5.66893 6.73389 5.40905 7.17451 5.24323C7.5946 5.08003 8.07453 4.96843 8.77749 4.93632C9.48167 4.90421 9.70663 4.89648 11.5 4.89648C13.2934 4.89648 13.5183 4.90421 14.2225 4.93649C14.9255 4.96843 15.4054 5.08003 15.8255 5.24305C16.2661 5.40887 16.6653 5.66893 16.9952 6.00497C17.3311 6.33486 17.5911 6.73389 17.7568 7.17451C17.9201 7.5946 18.0317 8.07453 18.0639 8.77749C18.096 9.48167 18.1035 9.70663 18.1035 11.5C18.1035 13.2934 18.096 13.5183 18.0637 14.2225Z" fill="#006000"/>
</svg>
