<svg width="29" height="29" viewBox="0 0 29 29" fill="none" xmlns="http://www.w3.org/2000/svg">
<path d="M17.126 14.6245C17.126 16.1441 15.8941 17.376 14.3745 17.376C12.8549 17.376 11.623 16.1441 11.623 14.6245C11.623 13.1049 12.8549 11.873 14.3745 11.873C15.8941 11.873 17.126 13.1049 17.126 14.6245Z" fill="white"/>
<path d="M20.8094 9.75629C20.6771 9.39788 20.4661 9.07347 20.1919 8.80719C19.9256 8.533 19.6014 8.32199 19.2428 8.18973C18.952 8.07677 18.515 7.94231 17.7102 7.90568C16.8397 7.86598 16.5786 7.85742 14.3747 7.85742C12.1705 7.85742 11.9094 7.86576 11.0391 7.90546C10.2343 7.94231 9.79714 8.07677 9.50651 8.18973C9.14788 8.32199 8.82347 8.533 8.55741 8.80719C8.28322 9.07347 8.07221 9.39766 7.93973 9.75629C7.82677 10.0471 7.69231 10.4843 7.65568 11.2891C7.61598 12.1594 7.60742 12.4205 7.60742 14.6247C7.60742 16.8286 7.61598 17.0897 7.65568 17.9602C7.69231 18.765 7.82677 19.202 7.93973 19.4928C8.07221 19.8514 8.283 20.1756 8.55719 20.4419C8.82347 20.7161 9.14766 20.9271 9.50629 21.0594C9.79714 21.1725 10.2343 21.307 11.0391 21.3436C11.9094 21.3833 12.1702 21.3917 14.3744 21.3917C16.5789 21.3917 16.8399 21.3833 17.71 21.3436C18.5148 21.307 18.952 21.1725 19.2428 21.0594C19.9627 20.7817 20.5317 20.2127 20.8094 19.4928C20.9223 19.202 21.0568 18.765 21.0936 17.9602C21.1333 17.0897 21.1417 16.8286 21.1417 14.6247C21.1417 12.4205 21.1333 12.1594 21.0936 11.2891C21.057 10.4843 20.9225 10.0471 20.8094 9.75629ZM14.3747 18.8631C12.0336 18.8631 10.1358 16.9655 10.1358 14.6244C10.1358 12.2834 12.0336 10.3858 14.3747 10.3858C16.7155 10.3858 18.6133 12.2834 18.6133 14.6244C18.6133 16.9655 16.7155 18.8631 14.3747 18.8631ZM18.7809 11.2088C18.2338 11.2088 17.7903 10.7653 17.7903 10.2182C17.7903 9.67119 18.2338 9.22767 18.7809 9.22767C19.3279 9.22767 19.7714 9.67119 19.7714 10.2182C19.7712 10.7653 19.3279 11.2088 18.7809 11.2088Z" fill="white"/>
<path d="M14.375 0.25C6.43712 0.25 0 6.68712 0 14.625C0 22.5629 6.43712 29 14.375 29C22.3129 29 28.75 22.5629 28.75 14.625C28.75 6.68712 22.3129 0.25 14.375 0.25ZM22.5796 18.0281C22.5397 18.9068 22.4 19.5067 22.196 20.0319C21.7671 21.1406 20.8906 22.0171 19.7819 22.446C19.257 22.65 18.6568 22.7895 17.7784 22.8296C16.8981 22.8697 16.6169 22.8794 14.3752 22.8794C12.1333 22.8794 11.8523 22.8697 10.9719 22.8296C10.0934 22.7895 9.49326 22.65 8.96836 22.446C8.41737 22.2387 7.91858 21.9138 7.50621 21.4938C7.08638 21.0816 6.76153 20.5826 6.55425 20.0319C6.35026 19.507 6.21054 18.9068 6.17062 18.0284C6.13004 17.1479 6.12061 16.8667 6.12061 14.625C6.12061 12.3833 6.13004 12.1021 6.1704 11.2219C6.21032 10.3432 6.34982 9.74326 6.55381 9.21814C6.76109 8.66737 7.08616 8.16836 7.50621 7.75621C7.91836 7.33616 8.41737 7.01131 8.96814 6.80403C9.49326 6.60004 10.0932 6.46054 10.9719 6.4204C11.8521 6.38026 12.1333 6.37061 14.375 6.37061C16.6167 6.37061 16.8979 6.38026 17.7781 6.42062C18.6568 6.46054 19.2567 6.60004 19.7819 6.80381C20.3326 7.01109 20.8316 7.33616 21.244 7.75621C21.6638 8.16858 21.9889 8.66737 22.196 9.21814C22.4002 9.74326 22.5397 10.3432 22.5798 11.2219C22.62 12.1021 22.6294 12.3833 22.6294 14.625C22.6294 16.8667 22.62 17.1479 22.5796 18.0281Z" fill="white"/>
</svg>
