<svg width="24" height="24" viewBox="0 0 24 24" fill="none" xmlns="http://www.w3.org/2000/svg">
<path d="M11.6667 2C7.99074 2 5 4.99074 5 8.66668C5 9.7702 5.2759 10.8643 5.80039 11.8348L11.3021 21.7852C11.3754 21.9178 11.5149 22 11.6667 22C11.8184 22 11.958 21.9178 12.0312 21.7852L17.535 11.8315C18.0575 10.8643 18.3334 9.77016 18.3334 8.66664C18.3334 4.99074 15.3426 2 11.6667 2ZM11.6667 12C9.82871 12 8.33336 10.5046 8.33336 8.66668C8.33336 6.82871 9.82871 5.33336 11.6667 5.33336C13.5046 5.33336 15 6.82871 15 8.66668C15 10.5046 13.5046 12 11.6667 12Z" fill="white"/>
</svg>
