<svg width="140" height="47" viewBox="0 0 140 47" fill="none" xmlns="http://www.w3.org/2000/svg">
<path d="M55.8 1.80004C42.7 2.00004 40 2.30004 40 3.50004C40 5.40004 37.3 5.40004 34 3.50004C32.5 2.70004 28.7 2.10004 24.7 2.00004C14.3 2.00004 7.5 6.00004 2.2 15.3C0.3 18.7 0 20.6 0 32.1V45H51C95.7 45 102 44.8 102 43.5C102 41.6 103.5 41.6 106.6 43.6C108.3 44.8 111.1 45.2 115.8 45.1C129.1 44.9 137.1 37.6 138 25C138.3 21.2 138.2 16.8 137.8 15.2C136.9 11.8 131.2 5.70004 126.8 3.40004C123 1.50004 111.3 1.20004 106.9 3.00004C104.5 4.00004 103.7 4.10004 103.1 3.10004C102.5 2.20004 98.3 1.90004 87.8 2.10004C79.8 2.20004 72.9 2.10004 72.4 1.90004C71.9 1.70004 64.4 1.60004 55.8 1.80004ZM34.2 6.60004C36 7.50004 38.7 9.60004 40.2 11.3L43 14.2V9.00004V3.80004L58.4 4.20004C72.5 4.50004 74.1 4.70004 76.9 6.70004L79.9 9.00004L80.2 6.70004C80.5 4.60004 81 4.50004 90.3 4.20004L100 3.90004V8.10004V12.2L103.5 9.20004C111 2.50004 122 2.50004 129.5 9.10004C136.7 15.4 138 26.7 132.3 33.8C124.7 43.4 110.9 44.7 102.8 36.5L100 33.7V37.9V42H90C81.6 42 80 41.7 80 40.4C80 39 79.8 39 77.8 40.4C75.9 41.8 70.5 42 39.8 42H4V29.7C4 16.1 4.9 13.5 11.2 8.70004C17.6 3.80004 27.2 3.00004 34.2 6.60004Z" fill="#098023"/>
<path d="M15.7 11C9.6 14.4 8 18 8 28.7V38H13.5C18.9 38 19 38 19 35C19 32 19.1 32 24.5 32C29.9 32 30 32 30 35C30 38 30.1 38 35.5 38H41V29.1C41 19.5 39.5 15.9 33.8 11.7C29.7 8.7 20.6 8.4 15.7 11ZM28.1 19C29.1 19.6 30 21 30 22C30 23.8 29.3 24 24.5 24C19.7 24 19 23.7 19 22C19 18.6 24.1 16.9 28.1 19Z" fill="#F00B0B"/>
<path d="M47 23.5V38H59.6C73.8 38 78 36.8 80 32C80.9 29.7 80.9 28.6 79.6 26.2C78.8 24.6 77.4 23 76.5 22.6C75 22.1 75 21.8 76.4 19.8C78.7 16.6 78.4 14.3 75.4 11.5C72.8 9.1 72.1 9 59.9 9H47V23.5ZM66.5 19C66.5 20 65.2 20.6 62.3 20.8C58.5 21.1 58 20.9 58 19C58 17.1 58.5 16.9 62.3 17.2C65.2 17.4 66.5 18 66.5 19ZM67.8 28.2C68.1 29.7 67.4 30 63.1 30C58.6 30 58 29.7 58 27.9C58 26.1 58.5 25.9 62.7 26.2C66.3 26.4 67.6 26.9 67.8 28.2Z" fill="#F00B0B"/>
<path d="M85 23.5V38H90.5H96V23.5V9H90.5H85V23.5Z" fill="#F00B0B"/>
<path d="M107.9 11.3C104 13.9 101 19.2 101 23.5C101 27.8 104 33.1 107.9 35.7C112 38.5 118.6 38.7 123.6 36.4C134.3 31.3 134.3 15.7 123.6 10.6C118.6 8.30002 112 8.50002 107.9 11.3ZM121.7 20.7C125.2 25.9 118.2 32 113.1 28.2C108.7 25 109.4 19.9 114.4 18C117.3 17 119.9 17.9 121.7 20.7Z" fill="#F00B0B"/>
</svg>
