<svg width="20" height="20" viewBox="0 0 41 41" fill="none" xmlns="http://www.w3.org/2000/svg">
<path d="M30.0887 26.5065C32.57 23.1206 33.6813 18.9228 33.2004 14.7527C32.7195 10.5826 30.6817 6.74793 27.4949 4.01577C24.308 1.28361 20.2071 -0.144516 16.0125 0.0171091C11.8179 0.178734 7.83902 1.91819 4.87186 4.88748C1.9047 7.85676 0.168089 11.8369 0.00946533 16.0316C-0.149158 20.2263 1.2819 24.3262 4.01634 27.5111C6.75078 30.696 10.5869 32.731 14.7573 33.2089C18.9277 33.6869 23.1248 32.5726 26.5089 30.0889H26.5064C26.5832 30.1914 26.6652 30.2888 26.7575 30.3836L36.6231 40.2492C37.1036 40.73 37.7554 41.0003 38.4352 41.0005C39.1149 41.0008 39.7669 40.731 40.2478 40.2505C40.7286 39.77 40.9989 39.1182 40.9991 38.4384C40.9993 37.7587 40.7295 37.1066 40.249 36.6258L30.3834 26.7602C30.2918 26.6675 30.1933 26.5818 30.0887 26.5039V26.5065ZM30.7499 16.6563C30.7499 18.5071 30.3853 20.3398 29.677 22.0497C28.9688 23.7596 27.9306 25.3133 26.6219 26.622C25.3132 27.9308 23.7595 28.9689 22.0496 29.6772C20.3396 30.3855 18.5069 30.75 16.6561 30.75C14.8053 30.75 12.9726 30.3855 11.2627 29.6772C9.55273 28.9689 7.99905 27.9308 6.69032 26.622C5.3816 25.3133 4.34346 23.7596 3.63518 22.0497C2.9269 20.3398 2.56236 18.5071 2.56236 16.6563C2.56236 12.9184 4.04723 9.33356 6.69032 6.69046C9.33341 4.04737 12.9182 2.5625 16.6561 2.5625C20.394 2.5625 23.9788 4.04737 26.6219 6.69046C29.265 9.33356 30.7499 12.9184 30.7499 16.6563V16.6563Z" fill="black"/>
</svg>
