<svg width="24" height="24" viewBox="0 0 24 24" fill="none" xmlns="http://www.w3.org/2000/svg">
<path d="M15.2578 11.9777L22.0003 16.2402V7.53516L15.2578 11.9777Z" fill="white"/>
<path d="M2 7.53516V16.2402L8.7425 11.9777L2 7.53516Z" fill="white"/>
<path d="M20.7496 5H3.24961C2.62586 5 2.13086 5.465 2.03711 6.06375L11.9996 12.6275L21.9621 6.06375C21.8684 5.465 21.3734 5 20.7496 5Z" fill="white"/>
<path d="M14.1116 12.7327L12.3428 13.8977C12.2378 13.9664 12.1191 14.0002 11.9991 14.0002C11.8791 14.0002 11.7603 13.9664 11.6553 13.8977L9.88656 12.7314L2.03906 17.6952C2.13531 18.2889 2.62781 18.7502 3.24906 18.7502H20.7491C21.3703 18.7502 21.8628 18.2889 21.9591 17.6952L14.1116 12.7327Z" fill="white"/>
</svg>
