<svg width="156" height="69" viewBox="0 0 156 69" fill="none" xmlns="http://www.w3.org/2000/svg">
<path d="M154.943 13.2344C154.94 13.2532 154.935 13.273 154.928 13.294L154.709 13.9612C148.227 22.1787 144.192 28.8907 141.633 35.8938C141.238 36.9724 140.88 38.0564 140.553 39.1523C140.535 39.1692 140.522 39.1843 140.515 39.1973C140.493 39.2458 140.466 39.3197 140.458 39.3447C140.454 39.3596 140.447 39.3841 140.445 39.3946C140.44 39.4145 140.436 39.4313 140.434 39.44C140.43 39.459 140.427 39.4784 140.424 39.494C140.416 39.5421 140.403 39.6173 140.387 39.7179C138.669 45.6934 137.867 52.0517 137.364 59.8184L136.583 63.7116L132.751 67.2912L128.702 65.9483C128.004 65.5632 127.142 65.0209 126.123 64.3791C122.71 62.2314 117.527 58.97 110.79 56.7588C101.883 53.8358 90.1572 52.6759 75.6219 57.8676L75.6137 57.8705L75.6056 57.8736C66.555 61.2841 56.035 63.1415 45.244 63.2231C20.4162 63.222 3.25052 52.8687 2.52188 52.4292C1.70555 51.9075 1.61432 51.3996 1.69603 51.0934C1.69603 51.0934 1.69604 51.0934 1.69604 51.0934L14.4048 3.60377L14.4083 3.59057L14.4115 3.57728C14.4684 3.3388 14.6639 3.02521 15.1093 2.7112C15.5482 2.4018 16.1747 2.13477 16.9511 1.98275C18.5845 1.68734 20.3066 1.98549 21.358 2.64727L21.3619 2.64964C22.5435 3.38596 49.1731 19.6284 83.6168 7.27662C104.045 -0.0324901 121.615 1.23724 134.128 4.3452C140.388 5.89986 145.382 7.91495 148.834 9.548C150.559 10.3643 51.898 11.0851 152.817 11.6049C153.276 11.8648 153.632 12.075 153.879 12.2231C153.999 12.2947 154.106 12.359 154.176 12.4009C154.212 12.4224 154.248 12.4435 154.279 12.461C154.283 12.463 154.286 12.465 154.29 12.4671C154.668 12.7404 154.861 13.013 154.943 13.2344Z" fill="#4F81BD" stroke="#385D8A" stroke-width="2"/>
</svg>
