<svg width="20" height="20" viewBox="0 0 20 20" fill="none" xmlns="http://www.w3.org/2000/svg">
<path d="M18.7131 18.2168L14.0292 13.2662C15.2335 11.8113 15.8934 9.98069 15.8934 8.07499C15.8934 3.62251 12.3289 0 7.94767 0C3.56647 0 0.00195312 3.62251 0.00195312 8.07499C0.00195312 12.5275 3.56647 16.15 7.94767 16.15C9.59243 16.15 11.1598 15.6458 12.4999 14.6888L17.2193 19.677C17.4165 19.8852 17.6819 20 17.9662 20C18.2353 20 18.4906 19.8957 18.6844 19.7061C19.0962 19.3034 19.1093 18.6357 18.7131 18.2168ZM7.94767 2.10652C11.1861 2.10652 13.8206 4.78391 13.8206 8.07499C13.8206 11.3661 11.1861 14.0435 7.94767 14.0435C4.70927 14.0435 2.07475 11.3661 2.07475 8.07499C2.07475 4.78391 4.70927 2.10652 7.94767 2.10652Z" fill="black"/>
</svg>
