<svg width="20" height="18" viewBox="0 0 20 18" fill="none" xmlns="http://www.w3.org/2000/svg">
<path fill-rule="evenodd" clip-rule="evenodd" d="M10 10.5003C9.17305 10.5003 8.50005 9.82725 8.50005 9.00025C8.50005 8.98717 8.50306 8.97437 8.50607 8.96155L8.50608 8.96154C8.50882 8.94986 8.51157 8.93817 8.51205 8.92625L10.074 10.4883C10.0621 10.4887 10.0504 10.4915 10.0388 10.4942C10.0259 10.4972 10.0131 10.5003 10 10.5003ZM2.70705 0.29325C2.31605 -0.09775 1.68405 -0.09775 1.29305 0.29325C0.90205 0.68425 0.90205 1.31625 1.29305 1.70725L6.92305 7.33725C6.64705 7.84625 6.50005 8.41125 6.50005 9.00025C6.50005 10.9303 8.07005 12.5002 10 12.5002C10.5891 12.5002 11.154 12.3532 11.663 12.0772L17.293 17.7073C17.488 17.9023 17.744 18.0002 18 18.0002C18.2561 18.0002 18.5121 17.9023 18.7071 17.7073C19.0981 17.3162 19.0981 16.6842 18.7071 16.2932L2.70705 0.29325ZM10.2198 13.998C5.91475 14.098 3.10475 10.415 2.17275 8.99605C2.62975 8.28205 3.39575 7.23605 4.45575 6.28505L3.04475 4.87305C1.52275 6.26205 0.54675 7.78005 0.13275 8.50305C-0.04425 8.81105 -0.04425 9.19005 0.13275 9.49805C0.76175 10.595 4.16175 16 10.0247 16C10.1067 16 10.1888 15.999 10.2708 15.997C11.4548 15.967 12.5268 15.711 13.4978 15.327L11.9178 13.747C11.3828 13.889 10.8198 13.983 10.2198 13.998ZM9.72975 2.00365C15.7048 1.81665 19.2297 7.39065 19.8678 8.50265C20.0438 8.81065 20.0438 9.18965 19.8678 9.49765C19.4527 10.2206 18.4767 11.7387 16.9548 13.1277L15.5437 11.7157C16.6038 10.7647 17.3708 9.71865 17.8267 9.00465C16.8948 7.58565 14.0717 3.89465 9.78075 4.00265C9.18075 4.01765 8.61775 4.11165 8.08175 4.25365L6.50175 2.67365C7.47375 2.28965 8.54475 2.03365 9.72975 2.00365Z" fill="#231F20"/>
</svg>
