<svg width="5" height="20" viewBox="0 0 5 20" fill="none" xmlns="http://www.w3.org/2000/svg">
<path d="M1.85124 0.340614L0.182847 2.46373C0.00633348 2.69087 -0.042224 2.88541 0.0371284 3.04686C0.11662 3.20881 0.302177 3.28956 0.593244 3.28956H1.65251L1.65251 16.7103H0.593244C0.302177 16.7103 0.11662 16.7912 0.0371284 16.9527C-0.0425486 17.1144 0.00600884 17.3087 0.182847 17.536L1.85124 19.6591C2.02775 19.8864 2.24425 20 2.50002 20C2.75588 20 2.97205 19.8864 3.14884 19.6591L4.81724 17.536C4.99375 17.3087 5.04259 17.1144 4.96296 16.9527C4.8836 16.791 4.69823 16.7103 4.40684 16.7103H3.34743L3.34743 3.28956H4.40684C4.69823 3.28956 4.8836 3.20881 4.96296 3.04686C5.04231 2.88537 4.99357 2.69087 4.81724 2.46373L3.14884 0.340614C2.97205 0.113476 2.75584 0 2.50002 0C2.2442 0 2.02785 0.113476 1.85124 0.340614Z" fill="black"/>
</svg>
