<svg width="20" height="5" viewBox="0 0 20 5" fill="none" xmlns="http://www.w3.org/2000/svg">
<path d="M19.6594 1.85124L17.5363 0.182847C17.3091 0.00633348 17.1146 -0.042224 16.9531 0.0371284C16.7912 0.11662 16.7104 0.302177 16.7104 0.593244V1.65251H3.28975V0.593244C3.28975 0.302177 3.20882 0.11662 3.04728 0.0371284C2.88564 -0.0425486 2.69128 0.00600884 2.46396 0.182847L0.340892 1.85124C0.113569 2.02775 0 2.24425 0 2.50002C0 2.75588 0.113569 2.97205 0.340892 3.14884L2.46396 4.81724C2.69128 4.99375 2.8856 5.04259 3.04728 4.96296C3.209 4.8836 3.28975 4.69823 3.28975 4.40684V3.34743H16.7104V4.40684C16.7104 4.69823 16.7912 4.8836 16.9531 4.96296C17.1146 5.04231 17.3091 4.99357 17.5363 4.81724L19.6594 3.14884C19.8865 2.97205 20 2.75584 20 2.50002C20 2.2442 19.8865 2.02785 19.6594 1.85124Z" fill="black"/>
</svg>
