<svg width="60" height="60" viewBox="0 0 60 60" fill="none" xmlns="http://www.w3.org/2000/svg">
<circle cx="30" cy="30" r="30" fill="#006000"/>
<path d="M17.8468 29.1422C18.8604 30.0967 20.1792 30.6039 21.5335 30.5598C22.8877 30.5157 24.1749 29.9238 25.1315 28.9051C26.0881 27.8865 26.6419 26.5182 26.6794 25.0803C26.7169 23.6424 26.2354 22.2436 25.3333 21.1703C23.5705 19.2752 17.146 18.3747 15.4053 18.1319C15.3491 18.1232 15.2918 18.1289 15.2381 18.1486C15.1845 18.1684 15.1361 18.2015 15.097 18.2453C15.058 18.2891 15.0294 18.3422 15.0137 18.4001C14.9981 18.4581 14.9958 18.5192 15.007 18.5783C15.2135 20.4264 16.0618 27.2471 17.8468 29.1422Z" stroke="white" stroke-width="2" stroke-linecap="round" stroke-linejoin="round"/>
<path d="M19.624 23.1836L28.0916 32.1814" stroke="white" stroke-width="2" stroke-linecap="round" stroke-linejoin="round"/>
<path d="M31.0937 19.0566C29.7556 20.4772 29.0039 22.4039 29.0039 24.4129C29.0039 26.422 29.7556 28.3487 31.0937 29.7693C32.4317 31.1899 34.2465 31.988 36.1388 31.988C38.0311 31.988 39.8459 31.1899 41.184 29.7693C43.5885 27.2243 44.7318 18.0229 44.9973 15.5639C45.0047 15.492 44.9975 15.4192 44.9763 15.3504C44.955 15.2816 44.9202 15.2184 44.8741 15.1651C44.828 15.1117 44.7718 15.0694 44.7091 15.0409C44.6464 15.0125 44.5787 14.9986 44.5105 15.0001C42.1281 15.2899 33.4909 16.5037 31.0937 19.0566Z" stroke="white" stroke-width="2" stroke-linecap="round" stroke-linejoin="round"/>
<path d="M38.632 21.5938L28.0918 32.1812" stroke="white" stroke-width="2" stroke-linecap="round" stroke-linejoin="round"/>
<path d="M28.0996 38.7119V31.6641" stroke="white" stroke-width="2" stroke-linecap="round" stroke-linejoin="round"/>
<path d="M40.6382 44.9999L35.8881 41.7579C33.4821 40.1167 30.6824 39.2441 27.8225 39.2441C24.9627 39.2441 22.163 40.1167 19.7569 41.7579L15.0068 44.9999" stroke="white" stroke-width="2" stroke-linecap="round" stroke-linejoin="round"/>
</svg>
