<svg width="24" height="24" viewBox="0 0 24 24" fill="none" xmlns="http://www.w3.org/2000/svg">
<path fill-rule="evenodd" clip-rule="evenodd" d="M0 12.5C0 18.8513 5.14874 24 11.5 24C17.8513 24 23 18.8513 23 12.5C23 6.14874 17.8513 1 11.5 1C5.14874 1 0 6.14874 0 12.5ZM18.7173 12.0599C18.7158 15.8294 15.6493 18.8965 11.8791 18.8981H11.8762C10.7318 18.8977 9.6072 18.6105 8.60837 18.0658L4.98333 19.0167L5.95345 15.4731C5.35502 14.4361 5.04016 13.2597 5.04064 12.0545C5.04217 8.28415 8.1098 5.21667 11.879 5.21667C13.7083 5.21746 15.4252 5.92962 16.7163 7.22217C18.0074 8.51468 18.718 10.2327 18.7173 12.0599Z" fill="#006000"/>
<path fill-rule="evenodd" clip-rule="evenodd" d="M6.62527 17.392L8.77644 16.8277L8.98397 16.9509C9.85663 17.4687 10.8569 17.7427 11.8768 17.7432H11.8791C15.0118 17.7432 17.5615 15.1934 17.5628 12.0594C17.5633 10.5407 16.9727 9.11275 15.8996 8.03841C14.8265 6.96407 13.3995 6.37211 11.8814 6.37158C8.74625 6.37158 6.19656 8.92108 6.19531 12.0548C6.19488 13.1288 6.49537 14.1747 7.06433 15.0796L7.19945 15.2946L6.62527 17.392ZM15.0902 13.5321C15.2093 13.5897 15.2898 13.6286 15.3242 13.6859C15.3669 13.7572 15.3669 14.0993 15.2246 14.4985C15.0821 14.8976 14.3996 15.2618 14.0712 15.3109C13.7769 15.3549 13.4044 15.3733 12.9951 15.2432C12.7469 15.1644 12.4286 15.0593 12.021 14.8833C10.4192 14.1916 9.33663 12.6391 9.13208 12.3456C9.11775 12.3251 9.10769 12.3107 9.10213 12.3033L9.10074 12.3014C9.01032 12.1808 8.40441 11.3724 8.40441 10.5357C8.40441 9.7487 8.79105 9.33614 8.96902 9.14624C8.98119 9.13326 8.9924 9.12128 9.00246 9.11031C9.15905 8.93924 9.3442 8.8965 9.4581 8.8965C9.572 8.8965 9.68599 8.89756 9.78556 8.90254C9.79783 8.90316 9.81063 8.90307 9.82385 8.90302C9.92342 8.9024 10.0475 8.90168 10.17 9.19584C10.2171 9.30907 10.2861 9.47687 10.3587 9.65383C10.5058 10.0118 10.6682 10.4073 10.6968 10.4645C10.7395 10.5501 10.768 10.6498 10.711 10.7639C10.7025 10.781 10.6946 10.7972 10.687 10.8125C10.6443 10.8999 10.6128 10.9642 10.5402 11.0489C10.5116 11.0823 10.4821 11.1182 10.4526 11.1541C10.3939 11.2257 10.3351 11.2973 10.2839 11.3483C10.1984 11.4335 10.1093 11.5259 10.209 11.697C10.3086 11.8681 10.6516 12.4275 11.1595 12.8806C11.7055 13.3677 12.1801 13.5735 12.4206 13.6779C12.4676 13.6982 12.5057 13.7147 12.5336 13.7287C12.7044 13.8142 12.8041 13.8 12.9037 13.6859C13.0034 13.5719 13.3309 13.187 13.4448 13.0159C13.5586 12.845 13.6726 12.8734 13.8292 12.9305C13.9858 12.9875 14.8259 13.4008 14.9967 13.4863C15.0301 13.5031 15.0613 13.5181 15.0902 13.5321Z" fill="#006000"/>
</svg>
