<svg width="29" height="29" viewBox="0 0 29 29" fill="none" xmlns="http://www.w3.org/2000/svg">
<path fill-rule="evenodd" clip-rule="evenodd" d="M0 14.625C0 22.5641 6.43593 29 14.375 29C22.3141 29 28.75 22.5641 28.75 14.625C28.75 6.68593 22.3141 0.25 14.375 0.25C6.43593 0.25 0 6.68593 0 14.625ZM23.3966 14.0749C23.3947 18.7867 19.5617 22.6207 14.8488 22.6226H14.8453C13.4147 22.6221 12.009 22.2632 10.7605 21.5822L6.22917 22.7708L7.44182 18.3414C6.69378 17.0451 6.3002 15.5746 6.3008 14.0681C6.30272 9.35518 10.1372 5.52083 14.8487 5.52083C17.1354 5.52182 19.2815 6.41202 20.8954 8.02771C22.5092 9.64334 23.3975 11.7909 23.3966 14.0749Z" fill="white"/>
<path fill-rule="evenodd" clip-rule="evenodd" d="M8.28159 20.7404L10.9706 20.035L11.23 20.189C12.3208 20.8363 13.5712 21.1788 14.8461 21.1793H14.8489C18.7648 21.1793 21.9519 17.9921 21.9535 14.0747C21.9542 12.1763 21.2159 10.3913 19.8745 9.04838C18.5332 7.70546 16.7494 6.9655 14.8517 6.96484C10.9328 6.96484 7.7457 10.1517 7.74414 14.0689C7.7436 15.4114 8.11921 16.7187 8.83041 17.8498L8.99932 18.1186L8.28159 20.7404ZM18.8627 15.9155C19.0117 15.9875 19.1123 16.0361 19.1553 16.1078C19.2086 16.1968 19.2086 16.6245 19.0307 17.1235C18.8527 17.6223 17.9994 18.0777 17.589 18.139C17.2211 18.194 16.7555 18.2169 16.2438 18.0543C15.9336 17.9559 15.5358 17.8245 15.0262 17.6044C13.024 16.7398 11.6708 14.7992 11.4151 14.4324C11.3972 14.4067 11.3846 14.3888 11.3777 14.3795L11.3759 14.3771C11.2629 14.2263 10.5055 13.2158 10.5055 12.17C10.5055 11.1862 10.9888 10.6705 11.2113 10.4332C11.2265 10.4169 11.2405 10.402 11.2531 10.3883C11.4488 10.1744 11.6803 10.121 11.8226 10.121C11.965 10.121 12.1075 10.1223 12.232 10.1285C12.2473 10.1293 12.2633 10.1292 12.2798 10.1291C12.4043 10.1284 12.5594 10.1275 12.7125 10.4952C12.7714 10.6367 12.8576 10.8465 12.9484 11.0676C13.1322 11.5151 13.3353 12.0095 13.371 12.081C13.4244 12.1879 13.46 12.3126 13.3888 12.4553C13.3781 12.4766 13.3682 12.4968 13.3588 12.516C13.3053 12.6252 13.266 12.7056 13.1753 12.8115C13.1396 12.8532 13.1027 12.8981 13.0658 12.943C12.9923 13.0325 12.9188 13.122 12.8549 13.1857C12.748 13.2922 12.6366 13.4078 12.7612 13.6216C12.8858 13.8354 13.3145 14.5348 13.9494 15.1012C14.6319 15.7099 15.2251 15.9672 15.5258 16.0977C15.5845 16.1232 15.6321 16.1438 15.667 16.1613C15.8805 16.2682 16.0051 16.2503 16.1297 16.1078C16.2543 15.9653 16.6636 15.4841 16.806 15.2703C16.9483 15.0566 17.0908 15.0922 17.2865 15.1634C17.4823 15.2348 18.5323 15.7514 18.7459 15.8583C18.7876 15.8792 18.8266 15.898 18.8627 15.9155Z" fill="white"/>
</svg>
